LeckerliOne.ufo
<glyph name="exclam" format="1">
  <advance width="497"/>
  <unicode hex="0021"/>
  <outline>
    <contour>
      <point x="361" y="690" type="curve" smooth="yes"/>
      <point x="263" y="595"/>
      <point x="210" y="389"/>
      <point x="210" y="283" type="curve" smooth="yes"/>
      <point x="210" y="244"/>
      <point x="221" y="221"/>
      <point x="254" y="221" type="curve" smooth="yes"/>
      <point x="310" y="221"/>
      <point x="369" y="248"/>
      <point x="369" y="284" type="curve" smooth="yes"/>
      <point x="369" y="312"/>
      <point x="359" y="351"/>
      <point x="359" y="378" type="curve" smooth="yes"/>
      <point x="359" y="482"/>
      <point x="474" y="572"/>
      <point x="477" y="645" type="curve" smooth="yes"/>
      <point x="477" y="659"/>
      <point x="442" y="707"/>
      <point x="401" y="707" type="curve" smooth="yes"/>
      <point x="388" y="707"/>
      <point x="374" y="703"/>
    </contour>
    <contour>
      <point x="354" y="89" type="curve"/>
      <point x="337" y="125"/>
      <point x="305" y="156"/>
      <point x="267" y="156" type="curve" smooth="yes"/>
      <point x="212" y="156"/>
      <point x="160" y="91"/>
      <point x="160" y="19" type="curve" smooth="yes"/>
      <point x="160" y="-9"/>
      <point x="173" y="-29"/>
      <point x="208" y="-29" type="curve" smooth="yes"/>
      <point x="269" y="-29"/>
      <point x="328" y="21"/>
    </contour>
  </outline>
</glyph>
<glyph name="comma" format="1">
  <advance width="346"/>
  <unicode hex="002C"/>
  <outline>
    <contour>
      <point x="109" y="60" type="curve" smooth="yes"/>
      <point x="109" y="36"/>
      <point x="114" y="9"/>
      <point x="143" y="-10" type="curve"/>
      <point x="125" y="-61"/>
      <point x="60" y="-56"/>
      <point x="60" y="-94" type="curve" smooth="yes"/>
      <point x="60" y="-115"/>
      <point x="88" y="-121"/>
      <point x="106" y="-121" type="curve" smooth="yes"/>
      <point x="206" y="-121"/>
      <point x="296" y="4"/>
      <point x="296" y="97" type="curve" smooth="yes"/>
      <point x="296" y="147"/>
      <point x="264" y="165"/>
      <point x="228" y="165" type="curve" smooth="yes"/>
      <point x="166" y="165"/>
      <point x="109" y="123"/>
    </contour>
  </outline>
</glyph>
<glyph name="one" format="1">
  <advance width="528"/>
  <unicode hex="0031"/>
  <outline>
    <contour>
      <point x="208" y="702" type="curve" smooth="yes"/>
      <point x="144" y="683"/>
      <point x="86" y="629"/>
      <point x="86" y="563" type="curve" smooth="yes"/>
      <point x="86" y="555"/>
      <point x="87" y="539"/>
      <point x="95" y="539" type="curve" smooth="yes"/>
      <point x="125" y="539"/>
      <point x="175" y="588"/>
      <point x="252" y="610" type="curve"/>
      <point x="288" y="619" type="line"/>
      <point x="236" y="478"/>
      <point x="171" y="230"/>
      <point x="171" y="122" type="curve" smooth="yes"/>
      <point x="171" y="106" type="line"/>
      <point x="51" y="101"/>
      <point x="-30" y="37"/>
      <point x="-30" y="-9" type="curve" smooth="yes"/>
      <point x="-30" y="-15"/>
      <point x="-26" y="-19"/>
      <point x="-20" y="-19" type="curve" smooth="yes"/>
      <point x="27" y="-19"/>
      <point x="101" y="7"/>
      <point x="210" y="7" type="curve" smooth="yes"/>
      <point x="242" y="7"/>
      <point x="397" y="0"/>
      <point x="419" y="0" type="curve" smooth="yes"/>
      <point x="443" y="0"/>
      <point x="454" y="11"/>
      <point x="462" y="37" type="curve" smooth="yes"/>
      <point x="467" y="53"/>
      <point x="478" y="77"/>
      <point x="478" y="85" type="curve" smooth="yes"/>
      <point x="478" y="114"/>
      <point x="423" y="104"/>
      <point x="322" y="106" type="curve"/>
      <point x="338" y="328"/>
      <point x="429" y="607"/>
      <point x="429" y="695" type="curve" smooth="yes"/>
      <point x="429" y="722"/>
      <point x="405" y="749"/>
      <point x="396" y="749" type="curve" smooth="yes"/>
      <point x="348" y="749"/>
      <point x="258" y="717"/>
    </contour>
  </outline>
</glyph>
<glyph name="less" format="1">
  <advance width="391"/>
  <unicode hex="003C"/>
  <outline>
    <contour>
      <point x="30" y="265" type="line"/>
      <point x="296" y="80" type="line"/>
      <point x="331" y="130" type="line"/>
      <point x="134" y="267" type="line"/>
      <point x="329" y="402" type="line"/>
      <point x="296" y="450" type="line"/>
    </contour>
  </outline>
</glyph>
<glyph name="B" format="1">
  <advance width="708"/>
  <unicode hex="0042"/>
  <outline>
    <contour>
      <point x="351" y="-22" type="curve" smooth="yes"/>
      <point x="513" y="-22"/>
      <point x="658" y="50"/>
      <point x="658" y="198" type="curve" smooth="yes"/>
      <point x="658" y="294"/>
      <point x="625" y="346"/>
      <point x="538" y="397" type="curve"/>
      <point x="605" y="433"/>
      <point x="638" y="486"/>
      <point x="638" y="553" type="curve" smooth="yes"/>
      <point x="638" y="657"/>
      <point x="569" y="753"/>
      <point x="351" y="753" type="curve" smooth="yes"/>
      <point x="175" y="753"/>
      <point x="66" y="633"/>
      <point x="66" y="598" type="curve" smooth="yes"/>
      <point x="66" y="591"/>
      <point x="71" y="587"/>
      <point x="79" y="587" type="curve" smooth="yes"/>
      <point x="141" y="587"/>
      <point x="182" y="657"/>
      <point x="326" y="657" type="curve" smooth="yes"/>
      <point x="428" y="657"/>
      <point x="481" y="620"/>
      <point x="481" y="541" type="curve" smooth="yes"/>
      <point x="481" y="490"/>
      <point x="467" y="459"/>
      <point x="448" y="441" type="curve"/>
      <point x="436" y="444"/>
      <point x="422" y="446"/>
      <point x="406" y="446" type="curve" smooth="yes"/>
      <point x="366" y="446"/>
      <point x="313" y="442"/>
      <point x="313" y="400" type="curve" smooth="yes"/>
      <point x="313" y="360"/>
      <point x="366" y="351"/>
      <point x="407" y="351" type="curve" smooth="yes"/>
      <point x="419" y="351"/>
      <point x="432" y="353"/>
      <point x="446" y="356" type="curve"/>
      <point x="481" y="322"/>
      <point x="492" y="279"/>
      <point x="492" y="209" type="curve" smooth="yes"/>
      <point x="492" y="157"/>
      <point x="460" y="74"/>
      <point x="326" y="74" type="curve" smooth="yes"/>
      <point x="301" y="74"/>
      <point x="269" y="81"/>
      <point x="235" y="90" type="curve"/>
      <point x="245" y="241" type="line"/>
      <point x="245" y="283"/>
      <point x="298" y="456"/>
      <point x="298" y="552" type="curve" smooth="yes"/>
      <point x="298" y="579"/>
      <point x="294" y="606"/>
      <point x="285" y="606" type="curve" smooth="yes"/>
      <point x="185" y="606"/>
      <point x="104" y="282"/>
      <point x="104" y="132" type="curve"/>
      <point x="104" y="131" type="line"/>
      <point x="77" y="138"/>
      <point x="54" y="144"/>
      <point x="38" y="144" type="curve" smooth="yes"/>
      <point x="23" y="144"/>
      <point x="15" y="139"/>
      <point x="15" y="128" type="curve" smooth="yes"/>
      <point x="15" y="42"/>
      <point x="246" y="-22"/>
    </contour>
  </outline>
</glyph>
<glyph name="Q" format="1">
  <advance width="792"/>
  <unicode hex="0051"/>
  <outline>
    <contour>
      <point x="91" y="433" type="curve" smooth="yes"/>
      <point x="91" y="324"/>
      <point x="147" y="266"/>
      <point x="202" y="266" type="curve" smooth="yes"/>
      <point x="210" y="266"/>
      <point x="213" y="270"/>
      <point x="213" y="277" type="curve" smooth="yes"/>
      <point x="213" y="300"/>
      <point x="194" y="337"/>
      <point x="194" y="393" type="curve" smooth="yes"/>
      <point x="194" y="545"/>
      <point x="292" y="636"/>
      <point x="424" y="636" type="curve" smooth="yes"/>
      <point x="513" y="636"/>
      <point x="594" y="576"/>
      <point x="594" y="439" type="curve" smooth="yes"/>
      <point x="594" y="288"/>
      <point x="522" y="167"/>
      <point x="398" y="105" type="curve"/>
      <point x="352" y="160"/>
      <point x="293" y="210"/>
      <point x="182" y="210" type="curve" smooth="yes"/>
      <point x="64" y="210"/>
      <point x="10" y="155"/>
      <point x="10" y="96" type="curve" smooth="yes"/>
      <point x="10" y="-1"/>
      <point x="93" y="-56"/>
      <point x="229" y="-56" type="curve" smooth="yes"/>
      <point x="278" y="-56"/>
      <point x="332" y="-50"/>
      <point x="385" y="-36" type="curve"/>
      <point x="424" y="-84"/>
      <point x="476" y="-125"/>
      <point x="572" y="-125" type="curve" smooth="yes"/>
      <point x="687" y="-125"/>
      <point x="737" y="-66"/>
      <point x="737" y="-46" type="curve" smooth="yes"/>
      <point x="737" y="-38"/>
      <point x="729" y="-36"/>
      <point x="715" y="-36" type="curve" smooth="yes"/>
      <point x="690" y="-36"/>
      <point x="646" y="-43"/>
      <point x="586" y="-43" type="curve" smooth="yes"/>
      <point x="542" y="-43"/>
      <point x="511" y="-26"/>
      <point x="485" y="0" type="curve"/>
      <point x="632" y="67"/>
      <point x="757" y="204"/>
      <point x="757" y="445" type="curve" smooth="yes"/>
      <point x="757" y="651"/>
      <point x="597" y="751"/>
      <point x="434" y="751" type="curve" smooth="yes"/>
      <point x="264" y="751"/>
      <point x="91" y="643"/>
    </contour>
    <contour>
      <point x="199" y="62" type="curve" smooth="yes"/>
      <point x="168" y="62"/>
      <point x="130" y="72"/>
      <point x="130" y="92" type="curve" smooth="yes"/>
      <point x="130" y="111"/>
      <point x="166" y="120"/>
      <point x="201" y="120" type="curve" smooth="yes"/>
      <point x="247" y="120"/>
      <point x="278" y="100"/>
      <point x="304" y="73" type="curve"/>
      <point x="271" y="66"/>
      <point x="236" y="62"/>
    </contour>
  </outline>
</glyph>
<glyph name="X" format="1">
  <advance width="606"/>
  <unicode hex="0058"/>
  <outline>
    <contour>
      <point x="465" y="-3" type="curve" smooth="yes"/>
      <point x="574" y="-3"/>
      <point x="686" y="111"/>
      <point x="686" y="198" type="curve" smooth="yes"/>
      <point x="686" y="221"/>
      <point x="682" y="233"/>
      <point x="672" y="233" type="curve" smooth="yes"/>
      <point x="653" y="233"/>
      <point x="564" y="112"/>
      <point x="525" y="112" type="curve" smooth="yes"/>
      <point x="468" y="112"/>
      <point x="453" y="238"/>
      <point x="425" y="379" type="curve"/>
      <point x="538" y="514"/>
      <point x="652" y="665"/>
      <point x="652" y="713" type="curve" smooth="yes"/>
      <point x="652" y="741"/>
      <point x="578" y="754"/>
      <point x="548" y="754" type="curve" smooth="yes"/>
      <point x="540" y="754"/>
      <point x="530" y="752"/>
      <point x="524" y="743" type="curve" smooth="yes"/>
      <point x="505" y="712"/>
      <point x="440" y="608"/>
      <point x="388" y="526" type="curve"/>
      <point x="348" y="651"/>
      <point x="281" y="757"/>
      <point x="145" y="757" type="curve" smooth="yes"/>
      <point x="65" y="757"/>
      <point x="11" y="705"/>
      <point x="11" y="631" type="curve" smooth="yes"/>
      <point x="11" y="545"/>
      <point x="102" y="515"/>
      <point x="178" y="515" type="curve" smooth="yes"/>
      <point x="202" y="515"/>
      <point x="225" y="518"/>
      <point x="243" y="523" type="curve"/>
      <point x="255" y="474"/>
      <point x="267" y="417"/>
      <point x="279" y="358" type="curve"/>
      <point x="235" y="291"/>
      <point x="154" y="181"/>
      <point x="-4" y="38" type="curve" smooth="yes"/>
      <point x="-17" y="26"/>
      <point x="-30" y="18"/>
      <point x="-30" y="12" type="curve" smooth="yes"/>
      <point x="-30" y="1"/>
      <point x="-13" y="-10"/>
      <point x="16" y="-10" type="curve" smooth="yes"/>
      <point x="124" y="-10"/>
      <point x="231" y="130"/>
      <point x="307" y="232" type="curve"/>
      <point x="339" y="103"/>
      <point x="383" y="-3"/>
    </contour>
    <contour>
      <point x="139" y="640" type="curve" smooth="yes"/>
      <point x="139" y="654"/>
      <point x="143" y="669"/>
      <point x="157" y="669" type="curve" smooth="yes"/>
      <point x="188" y="669"/>
      <point x="211" y="630"/>
      <point x="229" y="572" type="curve"/>
      <point x="175" y="582"/>
      <point x="139" y="614"/>
    </contour>
  </outline>
</glyph>
<glyph name="Y" format="1">
  <advance width="647"/>
  <unicode hex="0059"/>
  <outline>
    <contour>
      <point x="392" y="750" type="move" name="topUC"/>
    </contour>
    <contour>
      <point x="539" y="729" type="curve" smooth="yes"/>
      <point x="503" y="729"/>
      <point x="483" y="667"/>
      <point x="471" y="610" type="curve" smooth="yes"/>
      <point x="455" y="534"/>
      <point x="411" y="378"/>
      <point x="383" y="255" type="curve"/>
      <point x="357" y="214"/>
      <point x="323" y="185"/>
      <point x="280" y="185" type="curve" smooth="yes"/>
      <point x="246" y="185"/>
      <point x="227" y="203"/>
      <point x="227" y="245" type="curve" smooth="yes"/>
      <point x="227" y="378"/>
      <point x="296" y="499"/>
      <point x="296" y="611" type="curve" smooth="yes"/>
      <point x="296" y="663"/>
      <point x="270" y="750"/>
      <point x="170" y="750" type="curve" smooth="yes"/>
      <point x="79" y="750"/>
      <point x="0" y="698"/>
      <point x="0" y="625" type="curve" smooth="yes"/>
      <point x="0" y="604"/>
      <point x="6" y="597"/>
      <point x="16" y="597" type="curve" smooth="yes"/>
      <point x="55" y="597"/>
      <point x="78" y="647"/>
      <point x="115" y="647" type="curve" smooth="yes"/>
      <point x="146" y="647"/>
      <point x="156" y="615"/>
      <point x="156" y="580" type="curve" smooth="yes"/>
      <point x="156" y="484"/>
      <point x="75" y="350"/>
      <point x="75" y="252" type="curve" smooth="yes"/>
      <point x="75" y="148"/>
      <point x="126" y="85"/>
      <point x="221" y="85" type="curve" smooth="yes"/>
      <point x="272" y="85"/>
      <point x="318" y="98"/>
      <point x="358" y="120" type="curve"/>
      <point x="355" y="100"/>
      <point x="353" y="84"/>
      <point x="353" y="58" type="curve"/>
      <point x="346" y="56" type="line" smooth="yes"/>
      <point x="193" y="2"/>
      <point x="32" y="-55"/>
      <point x="32" y="-127" type="curve" smooth="yes"/>
      <point x="32" y="-231"/>
      <point x="129" y="-274"/>
      <point x="231" y="-274" type="curve" smooth="yes"/>
      <point x="422" y="-274"/>
      <point x="486" y="-67"/>
      <point x="506" y="22" type="curve"/>
      <point x="624" y="72"/>
      <point x="727" y="130"/>
      <point x="727" y="195" type="curve" smooth="yes"/>
      <point x="727" y="218"/>
      <point x="723" y="233"/>
      <point x="713" y="233" type="curve" smooth="yes"/>
      <point x="705" y="233"/>
      <point x="689" y="224"/>
      <point x="672" y="204" type="curve" smooth="yes"/>
      <point x="649" y="178"/>
      <point x="591" y="149"/>
      <point x="526" y="123" type="curve"/>
      <point x="564" y="307"/>
      <point x="582" y="418"/>
      <point x="598" y="514" type="curve"/>
      <point x="624" y="563"/>
      <point x="634" y="602"/>
      <point x="634" y="632" type="curve" smooth="yes"/>
      <point x="634" y="706"/>
      <point x="600" y="729"/>
    </contour>
    <contour>
      <point x="230" y="-197" type="curve" smooth="yes"/>
      <point x="184" y="-197"/>
      <point x="134" y="-173"/>
      <point x="134" y="-139" type="curve" smooth="yes"/>
      <point x="134" y="-103"/>
      <point x="191" y="-94"/>
      <point x="331" y="-44" type="curve"/>
      <point x="309" y="-126"/>
      <point x="278" y="-197"/>
    </contour>
  </outline>
</glyph>
<glyph name="bracketleft" format="1">
  <advance width="335"/>
  <unicode hex="005B"/>
  <outline>
    <contour>
      <point x="50" y="-220" type="line"/>
      <point x="295" y="-220" type="line"/>
      <point x="295" y="-162" type="line"/>
      <point x="118" y="-162" type="line"/>
      <point x="118" y="781" type="line"/>
      <point x="295" y="781" type="line"/>
      <point x="295" y="839" type="line"/>
      <point x="50" y="839" type="line"/>
    </contour>
  </outline>
</glyph>
<glyph name="backslash" format="1">
  <advance width="486"/>
  <unicode hex="005C"/>
  <outline>
    <contour>
      <point x="183" y="743" type="line" smooth="yes"/>
      <point x="181" y="748"/>
      <point x="178" y="751"/>
      <point x="173" y="751" type="curve" smooth="yes"/>
      <point x="154" y="751"/>
      <point x="120" y="703"/>
      <point x="120" y="669" type="curve" smooth="yes"/>
      <point x="120" y="653"/>
      <point x="166" y="523"/>
      <point x="195" y="449" type="curve" smooth="yes"/>
      <point x="334" y="96"/>
      <point x="320" y="126"/>
      <point x="379" y="-51" type="curve" smooth="yes"/>
      <point x="380" y="-53"/>
      <point x="382" y="-54"/>
      <point x="385" y="-54" type="curve" smooth="yes"/>
      <point x="414" y="-54"/>
      <point x="441" y="-6"/>
      <point x="441" y="20" type="curve" smooth="yes"/>
      <point x="441" y="26"/>
      <point x="440" y="31"/>
      <point x="438" y="37" type="curve" smooth="yes"/>
    </contour>
  </outline>
</glyph>
<glyph name="h" format="1">
  <advance width="553"/>
  <unicode hex="0068"/>
  <outline>
    <contour>
      <point x="412" y="-3" type="curve" smooth="yes"/>
      <point x="521" y="-3"/>
      <point x="633" y="111"/>
      <point x="633" y="198" type="curve" smooth="yes"/>
      <point x="633" y="221"/>
      <point x="629" y="233"/>
      <point x="619" y="233" type="curve" smooth="yes"/>
      <point x="600" y="233"/>
      <point x="511" y="112"/>
      <point x="472" y="112" type="curve" smooth="yes"/>
      <point x="464" y="112"/>
      <point x="461" y="118"/>
      <point x="461" y="129" type="curve" smooth="yes"/>
      <point x="461" y="168"/>
      <point x="503" y="267"/>
      <point x="503" y="364" type="curve" smooth="yes"/>
      <point x="503" y="435"/>
      <point x="455" y="479"/>
      <point x="365" y="479" type="curve" smooth="yes"/>
      <point x="287" y="479"/>
      <point x="237" y="434"/>
      <point x="207" y="384" type="curve"/>
      <point x="222" y="456" type="line"/>
      <point x="260" y="529"/>
      <point x="303" y="577"/>
      <point x="303" y="649" type="curve" smooth="yes"/>
      <point x="303" y="672"/>
      <point x="283" y="747"/>
      <point x="242" y="747" type="curve" smooth="yes"/>
      <point x="229" y="747"/>
      <point x="213" y="741"/>
      <point x="202" y="720" type="curve" smooth="yes"/>
      <point x="51" y="426"/>
      <point x="45" y="248"/>
      <point x="45" y="82" type="curve" smooth="yes"/>
      <point x="45" y="21"/>
      <point x="67" y="-15"/>
      <point x="95" y="-15" type="curve" smooth="yes"/>
      <point x="117" y="-15"/>
      <point x="136" y="-2"/>
      <point x="157" y="10" type="curve" smooth="yes"/>
      <point x="184" y="25"/>
      <point x="192" y="52"/>
      <point x="192" y="84" type="curve" smooth="yes"/>
      <point x="192" y="110"/>
      <point x="189" y="142"/>
      <point x="186" y="173" type="curve"/>
      <point x="199" y="255"/>
      <point x="263" y="372"/>
      <point x="318" y="372" type="curve" smooth="yes"/>
      <point x="353" y="372"/>
      <point x="363" y="357"/>
      <point x="363" y="336" type="curve" smooth="yes"/>
      <point x="363" y="277"/>
      <point x="332" y="230"/>
      <point x="332" y="125" type="curve" smooth="yes"/>
      <point x="332" y="58"/>
      <point x="349" y="-3"/>
    </contour>
  </outline>
</glyph>
<glyph name="x" format="1">
  <advance width="495"/>
  <unicode hex="0078"/>
  <outline>
    <contour>
      <point x="137" y="-4" type="curve" smooth="yes"/>
      <point x="160" y="-4"/>
      <point x="193" y="44"/>
      <point x="232" y="105" type="curve"/>
      <point x="265" y="43"/>
      <point x="303" y="-3"/>
      <point x="354" y="-3" type="curve" smooth="yes"/>
      <point x="463" y="-3"/>
      <point x="575" y="111"/>
      <point x="575" y="198" type="curve" smooth="yes"/>
      <point x="575" y="221"/>
      <point x="571" y="233"/>
      <point x="561" y="233" type="curve" smooth="yes"/>
      <point x="542" y="233"/>
      <point x="453" y="112"/>
      <point x="414" y="112" type="curve" smooth="yes"/>
      <point x="385" y="112"/>
      <point x="358" y="184"/>
      <point x="335" y="254" type="curve"/>
      <point x="434" y="379"/>
      <point x="497" y="390"/>
      <point x="497" y="440" type="curve" smooth="yes"/>
      <point x="497" y="468"/>
      <point x="449" y="481"/>
      <point x="423" y="481" type="curve" smooth="yes"/>
      <point x="416" y="481"/>
      <point x="407" y="479"/>
      <point x="402" y="470" type="curve" smooth="yes"/>
      <point x="385" y="439"/>
      <point x="342" y="386"/>
      <point x="306" y="343" type="curve"/>
      <point x="303" y="353" type="line"/>
      <point x="269" y="428"/>
      <point x="216" y="493"/>
      <point x="160" y="493" type="curve" smooth="yes"/>
      <point x="116" y="493"/>
      <point x="72" y="422"/>
      <point x="72" y="385" type="curve" smooth="yes"/>
      <point x="72" y="348"/>
      <point x="94" y="315"/>
      <point x="144" y="315" type="curve" smooth="yes"/>
      <point x="171" y="315"/>
      <point x="187" y="260"/>
      <point x="201" y="206" type="curve"/>
      <point x="123" y="104"/>
      <point x="65" y="40"/>
      <point x="65" y="36" type="curve" smooth="yes"/>
      <point x="65" y="18"/>
      <point x="103" y="-4"/>
    </contour>
  </outline>
</glyph>
<glyph name="bar" format="1">
  <advance width="462"/>
  <unicode hex="007C"/>
  <outline>
    <contour>
      <point x="179" y="-3" type="line" smooth="yes"/>
      <point x="179" y="-24"/>
      <point x="214" y="-68"/>
      <point x="249" y="-68" type="curve" smooth="yes"/>
      <point x="255" y="-68"/>
      <point x="265" y="-67"/>
      <point x="265" y="-61" type="curve" smooth="yes"/>
      <point x="265" y="-24"/>
      <point x="263" y="24"/>
      <point x="263" y="78" type="curve" smooth="yes"/>
      <point x="263" y="192"/>
      <point x="265" y="334"/>
      <point x="265" y="466" type="curve" smooth="yes"/>
      <point x="265" y="554"/>
      <point x="264" y="637"/>
      <point x="261" y="704" type="curve" smooth="yes"/>
      <point x="260" y="729"/>
      <point x="213" y="765"/>
      <point x="193" y="765" type="curve" smooth="yes"/>
      <point x="183" y="765"/>
      <point x="178" y="764"/>
      <point x="176" y="752" type="curve"/>
    </contour>
  </outline>
</glyph>
<glyph name="asciitilde" format="1">
  <advance width="510"/>
  <unicode hex="007E"/>
  <outline>
    <contour>
      <point x="99" y="249" type="line"/>
      <point x="113" y="278"/>
      <point x="138" y="285"/>
      <point x="171" y="285" type="curve" smooth="yes"/>
      <point x="221" y="285"/>
      <point x="283" y="250"/>
      <point x="340" y="250" type="curve" smooth="yes"/>
      <point x="400" y="250"/>
      <point x="441" y="269"/>
      <point x="460" y="323" type="curve"/>
      <point x="411" y="344" type="line"/>
      <point x="397" y="315"/>
      <point x="372" y="308"/>
      <point x="339" y="308" type="curve" smooth="yes"/>
      <point x="287" y="308"/>
      <point x="229" y="343"/>
      <point x="170" y="343" type="curve" smooth="yes"/>
      <point x="110" y="343"/>
      <point x="69" y="324"/>
      <point x="50" y="270" type="curve"/>
    </contour>
  </outline>
</glyph>
<glyph name="copyright" format="1">
  <advance width="766"/>
  <unicode hex="00A9"/>
  <outline>
    <contour>
      <point x="576" y="653" type="curve" smooth="yes"/>
      <point x="526" y="661"/>
      <point x="474" y="666"/>
      <point x="418" y="666" type="curve" smooth="yes"/>
      <point x="219" y="666"/>
      <point x="40" y="557"/>
      <point x="40" y="361" type="curve" smooth="yes"/>
      <point x="40" y="183"/>
      <point x="173" y="24"/>
      <point x="349" y="24" type="curve" smooth="yes"/>
      <point x="607" y="24"/>
      <point x="726" y="190"/>
      <point x="726" y="380" type="curve" smooth="yes"/>
      <point x="726" y="444"/>
      <point x="716" y="507"/>
      <point x="665" y="567" type="curve" smooth="yes"/>
      <point x="656" y="577"/>
      <point x="642" y="584"/>
      <point x="630" y="584" type="curve" smooth="yes"/>
      <point x="608" y="584"/>
      <point x="602" y="567"/>
      <point x="602" y="542" type="curve" smooth="yes"/>
      <point x="602" y="482"/>
      <point x="627" y="426"/>
      <point x="627" y="368" type="curve" smooth="yes"/>
      <point x="627" y="216"/>
      <point x="507" y="111"/>
      <point x="375" y="111" type="curve" smooth="yes"/>
      <point x="237" y="111"/>
      <point x="142" y="236"/>
      <point x="142" y="364" type="curve" smooth="yes"/>
      <point x="142" y="518"/>
      <point x="258" y="590"/>
      <point x="399" y="590" type="curve" smooth="yes"/>
      <point x="446" y="590"/>
      <point x="489" y="577"/>
      <point x="533" y="577" type="curve" smooth="yes"/>
      <point x="561" y="577"/>
      <point x="602" y="606"/>
      <point x="602" y="626" type="curve" smooth="yes"/>
      <point x="602" y="640"/>
      <point x="595" y="650"/>
    </contour>
    <contour>
      <point x="413" y="451" type="curve" smooth="yes"/>
      <point x="430" y="451"/>
      <point x="434" y="432"/>
      <point x="450" y="432" type="curve" smooth="yes"/>
      <point x="469" y="432"/>
      <point x="483" y="452"/>
      <point x="483" y="483" type="curve" smooth="yes"/>
      <point x="483" y="507"/>
      <point x="469" y="524"/>
      <point x="437" y="524" type="curve" smooth="yes"/>
      <point x="347" y="524"/>
      <point x="250" y="431"/>
      <point x="250" y="306" type="curve" smooth="yes"/>
      <point x="250" y="233"/>
      <point x="307" y="202"/>
      <point x="360" y="202" type="curve" smooth="yes"/>
      <point x="477" y="202"/>
      <point x="531" y="296"/>
      <point x="531" y="338" type="curve" smooth="yes"/>
      <point x="531" y="353"/>
      <point x="525" y="362"/>
      <point x="519" y="362" type="curve" smooth="yes"/>
      <point x="505" y="362"/>
      <point x="455" y="278"/>
      <point x="403" y="278" type="curve" smooth="yes"/>
      <point x="386" y="278"/>
      <point x="347" y="286"/>
      <point x="347" y="322" type="curve" smooth="yes"/>
      <point x="347" y="382"/>
      <point x="373" y="451"/>
    </contour>
  </outline>
</glyph>
<glyph name="ordfeminine" format="1">
  <advance width="439"/>
  <unicode hex="00AA"/>
  <outline>
    <contour>
      <point x="281" y="754" type="curve" smooth="yes"/>
      <point x="269" y="756"/>
      <point x="257" y="757"/>
      <point x="245" y="757" type="curve" smooth="yes"/>
      <point x="141" y="757"/>
      <point x="80" y="648"/>
      <point x="80" y="561" type="curve" smooth="yes"/>
      <point x="80" y="503"/>
      <point x="119" y="466"/>
      <point x="175" y="466" type="curve" smooth="yes"/>
      <point x="230" y="466"/>
      <point x="261" y="490"/>
      <point x="282" y="524" type="curve"/>
      <point x="288" y="491"/>
      <point x="302" y="469"/>
      <point x="325" y="469" type="curve" smooth="yes"/>
      <point x="372" y="469"/>
      <point x="419" y="524"/>
      <point x="419" y="547" type="curve" smooth="yes"/>
      <point x="419" y="553"/>
      <point x="416" y="557"/>
      <point x="409" y="557" type="curve" smooth="yes"/>
      <point x="391" y="557"/>
      <point x="378" y="539"/>
      <point x="362" y="539" type="curve" smooth="yes"/>
      <point x="348" y="539"/>
      <point x="348" y="564"/>
      <point x="348" y="587" type="curve" smooth="yes"/>
      <point x="348" y="618"/>
      <point x="349" y="642"/>
      <point x="353" y="665" type="curve"/>
      <point x="362" y="680"/>
      <point x="370" y="694"/>
      <point x="377" y="712" type="curve"/>
      <point x="377" y="732"/>
      <point x="344" y="765"/>
      <point x="320" y="765" type="curve" smooth="yes"/>
      <point x="312" y="765"/>
      <point x="305" y="759"/>
      <point x="300" y="748" type="curve"/>
      <point x="296" y="750"/>
      <point x="289" y="752"/>
    </contour>
    <contour>
      <point x="203" y="530" type="curve" smooth="yes"/>
      <point x="176" y="530"/>
      <point x="169" y="553"/>
      <point x="169" y="576" type="curve" smooth="yes"/>
      <point x="169" y="657"/>
      <point x="232" y="707"/>
      <point x="289" y="717" type="curve"/>
      <point x="280" y="677"/>
      <point x="277" y="624"/>
      <point x="277" y="600" type="curve"/>
      <point x="262" y="550"/>
      <point x="231" y="530"/>
    </contour>
  </outline>
</glyph>
<glyph name="uni00B5" format="1">
  <advance width="513"/>
  <unicode hex="00B5"/>
  <outline>
    <contour>
      <point x="150" y="486" type="curve" smooth="yes"/>
      <point x="129" y="486"/>
      <point x="85" y="481"/>
      <point x="61" y="462" type="curve"/>
      <point x="37" y="257" type="line"/>
      <point x="-36" y="44"/>
      <point x="-38" y="-99"/>
      <point x="-38" y="-181" type="curve" smooth="yes"/>
      <point x="-38" y="-203"/>
      <point x="-32" y="-218"/>
      <point x="-19" y="-233" type="curve" smooth="yes"/>
      <point x="-9" y="-245"/>
      <point x="15" y="-274"/>
      <point x="43" y="-274" type="curve" smooth="yes"/>
      <point x="87" y="-274"/>
      <point x="81" y="-241"/>
      <point x="117" y="-3" type="curve"/>
      <point x="129" y="-4"/>
      <point x="141" y="-5"/>
      <point x="154" y="-5" type="curve" smooth="yes"/>
      <point x="227" y="-5"/>
      <point x="272" y="36"/>
      <point x="299" y="85" type="curve"/>
      <point x="304" y="35"/>
      <point x="322" y="-3"/>
      <point x="372" y="-3" type="curve" smooth="yes"/>
      <point x="481" y="-3"/>
      <point x="593" y="111"/>
      <point x="593" y="198" type="curve" smooth="yes"/>
      <point x="593" y="221"/>
      <point x="589" y="233"/>
      <point x="579" y="233" type="curve" smooth="yes"/>
      <point x="560" y="233"/>
      <point x="471" y="112"/>
      <point x="432" y="112" type="curve" smooth="yes"/>
      <point x="424" y="112"/>
      <point x="421" y="118"/>
      <point x="421" y="129" type="curve" smooth="yes"/>
      <point x="421" y="199"/>
      <point x="464" y="320"/>
      <point x="464" y="424" type="curve" smooth="yes"/>
      <point x="464" y="465"/>
      <point x="459" y="489"/>
      <point x="425" y="489" type="curve" smooth="yes"/>
      <point x="353" y="489"/>
      <point x="321" y="464"/>
      <point x="321" y="422" type="curve" smooth="yes"/>
      <point x="321" y="406"/>
      <point x="321" y="356"/>
      <point x="324" y="335" type="curve"/>
      <point x="313" y="253"/>
      <point x="275" y="102"/>
      <point x="201" y="102" type="curve" smooth="yes"/>
      <point x="166" y="102"/>
      <point x="156" y="117"/>
      <point x="156" y="138" type="curve" smooth="yes"/>
      <point x="156" y="232"/>
      <point x="203" y="310"/>
      <point x="203" y="389" type="curve" smooth="yes"/>
      <point x="203" y="440"/>
      <point x="197" y="486"/>
    </contour>
  </outline>
</glyph>
<glyph name="threequarters" format="1">
  <advance width="699"/>
  <unicode hex="00BE"/>
  <outline>
    <contour>
      <point x="105" y="37" type="line"/>
      <point x="103" y="31"/>
      <point x="102" y="26"/>
      <point x="102" y="20" type="curve" smooth="yes"/>
      <point x="102" y="-6"/>
      <point x="129" y="-54"/>
      <point x="158" y="-54" type="curve" smooth="yes"/>
      <point x="161" y="-54"/>
      <point x="163" y="-53"/>
      <point x="164" y="-51" type="curve" smooth="yes"/>
      <point x="198" y="54"/>
      <point x="339" y="289"/>
      <point x="445" y="456" type="curve" smooth="yes"/>
      <point x="508" y="555"/>
      <point x="563" y="621"/>
      <point x="563" y="669" type="curve" smooth="yes"/>
      <point x="563" y="703"/>
      <point x="529" y="751"/>
      <point x="510" y="751" type="curve" smooth="yes"/>
      <point x="505" y="751"/>
      <point x="502" y="748"/>
      <point x="500" y="743" type="curve"/>
    </contour>
    <contour>
      <point x="556" y="264" type="curve" smooth="yes"/>
      <point x="543" y="241"/>
      <point x="530" y="194"/>
      <point x="518" y="148" type="curve"/>
      <point x="466" y="144" type="line"/>
      <point x="478" y="185"/>
      <point x="499" y="220"/>
      <point x="499" y="254" type="curve" smooth="yes"/>
      <point x="499" y="268"/>
      <point x="492" y="277"/>
      <point x="483" y="277" type="curve" smooth="yes"/>
      <point x="458" y="277"/>
      <point x="403" y="176"/>
      <point x="390" y="123" type="curve"/>
      <point x="395" y="109"/>
      <point x="404" y="97"/>
      <point x="429" y="82" type="curve"/>
      <point x="505" y="89" type="line"/>
      <point x="501" y="69"/>
      <point x="499" y="51"/>
      <point x="499" y="39" type="curve" smooth="yes"/>
      <point x="499" y="2"/>
      <point x="511" y="-10"/>
      <point x="550" y="-10" type="curve" smooth="yes"/>
      <point x="561" y="-10"/>
      <point x="576" y="-7"/>
      <point x="576" y="10" type="curve" smooth="yes"/>
      <point x="576" y="33"/>
      <point x="578" y="60"/>
      <point x="581" y="89" type="curve"/>
      <point x="592" y="88"/>
      <point x="607" y="88"/>
      <point x="611" y="88" type="curve" smooth="yes"/>
      <point x="629" y="88"/>
      <point x="649" y="114"/>
      <point x="649" y="130" type="curve" smooth="yes"/>
      <point x="649" y="143"/>
      <point x="641" y="147"/>
      <point x="629" y="147" type="curve" smooth="yes"/>
      <point x="589" y="147" type="line"/>
      <point x="598" y="198"/>
      <point x="608" y="237"/>
      <point x="608" y="274" type="curve" smooth="yes"/>
      <point x="608" y="284"/>
      <point x="605" y="292"/>
      <point x="593" y="292" type="curve" smooth="yes"/>
      <point x="577" y="292"/>
      <point x="563" y="276"/>
    </contour>
    <contour>
      <point x="166" y="752" type="curve" smooth="yes"/>
      <point x="105" y="752"/>
      <point x="72" y="706"/>
      <point x="72" y="677" type="curve" smooth="yes"/>
      <point x="72" y="671"/>
      <point x="78" y="661"/>
      <point x="87" y="661" type="curve" smooth="yes"/>
      <point x="113" y="661"/>
      <point x="125" y="696"/>
      <point x="156" y="696" type="curve" smooth="yes"/>
      <point x="174" y="696"/>
      <point x="183" y="687"/>
      <point x="183" y="671" type="curve" smooth="yes"/>
      <point x="183" y="658"/>
      <point x="177" y="643"/>
      <point x="172" y="636" type="curve"/>
      <point x="169" y="637"/>
      <point x="164" y="638"/>
      <point x="159" y="638" type="curve" smooth="yes"/>
      <point x="146" y="638"/>
      <point x="119" y="633"/>
      <point x="119" y="610" type="curve" smooth="yes"/>
      <point x="119" y="587"/>
      <point x="145" y="582"/>
      <point x="163" y="582" type="curve" smooth="yes"/>
      <point x="174" y="582" type="line"/>
      <point x="181" y="572"/>
      <point x="187" y="557"/>
      <point x="187" y="540" type="curve" smooth="yes"/>
      <point x="187" y="523"/>
      <point x="172" y="499"/>
      <point x="139" y="499" type="curve" smooth="yes"/>
      <point x="105" y="499"/>
      <point x="91" y="528"/>
      <point x="68" y="528" type="curve" smooth="yes"/>
      <point x="57" y="528"/>
      <point x="50" y="524"/>
      <point x="50" y="511" type="curve" smooth="yes"/>
      <point x="50" y="483"/>
      <point x="92" y="442"/>
      <point x="147" y="442" type="curve" smooth="yes"/>
      <point x="200" y="442"/>
      <point x="268" y="473"/>
      <point x="268" y="535" type="curve" smooth="yes"/>
      <point x="268" y="569"/>
      <point x="250" y="594"/>
      <point x="231" y="610" type="curve"/>
      <point x="247" y="628"/>
      <point x="260" y="652"/>
      <point x="260" y="675" type="curve" smooth="yes"/>
      <point x="260" y="725"/>
      <point x="226" y="752"/>
    </contour>
  </outline>
</glyph>
<glyph name="Adieresis" format="1">
  <advance width="695"/>
  <unicode hex="00C4"/>
  <outline>
    <contour>
      <point x="545" y="-3" type="curve" smooth="yes"/>
      <point x="650" y="-3"/>
      <point x="775" y="111"/>
      <point x="775" y="198" type="curve" smooth="yes"/>
      <point x="775" y="221"/>
      <point x="767" y="236"/>
      <point x="757" y="236" type="curve" smooth="yes"/>
      <point x="739" y="236"/>
      <point x="646" y="112"/>
      <point x="605" y="112" type="curve" smooth="yes"/>
      <point x="585" y="112"/>
      <point x="582" y="132"/>
      <point x="582" y="164" type="curve" smooth="yes"/>
      <point x="582" y="244"/>
      <point x="689" y="410"/>
      <point x="689" y="566" type="curve" smooth="yes"/>
      <point x="689" y="670"/>
      <point x="641" y="757"/>
      <point x="503" y="757" type="curve" smooth="yes"/>
      <point x="348" y="757"/>
      <point x="233" y="585"/>
      <point x="164" y="409" type="curve"/>
      <point x="49" y="389"/>
      <point x="-20" y="339"/>
      <point x="-20" y="301" type="curve" smooth="yes"/>
      <point x="-20" y="295"/>
      <point x="-15" y="291"/>
      <point x="-7" y="291" type="curve" smooth="yes"/>
      <point x="26" y="291"/>
      <point x="71" y="299"/>
      <point x="129" y="306" type="curve"/>
      <point x="102" y="215"/>
      <point x="88" y="132"/>
      <point x="88" y="82" type="curve" smooth="yes"/>
      <point x="88" y="21"/>
      <point x="105" y="-15"/>
      <point x="138" y="-15" type="curve" smooth="yes"/>
      <point x="164" y="-15"/>
      <point x="187" y="-2"/>
      <point x="212" y="10" type="curve" smooth="yes"/>
      <point x="243" y="25"/>
      <point x="253" y="52"/>
      <point x="253" y="84" type="curve" smooth="yes"/>
      <point x="253" y="137"/>
      <point x="256" y="227"/>
      <point x="271" y="317" type="curve"/>
      <point x="285" y="317" type="line" smooth="yes"/>
      <point x="316" y="317"/>
      <point x="425" y="313"/>
      <point x="486" y="311" type="curve"/>
      <point x="462" y="237"/>
      <point x="441" y="161"/>
      <point x="441" y="103" type="curve" smooth="yes"/>
      <point x="441" y="40"/>
      <point x="467" y="-3"/>
    </contour>
    <contour>
      <point x="484" y="621" type="curve" smooth="yes"/>
      <point x="524" y="621"/>
      <point x="545" y="586"/>
      <point x="545" y="531" type="curve" smooth="yes"/>
      <point x="545" y="502"/>
      <point x="534" y="461"/>
      <point x="520" y="414" type="curve"/>
      <point x="293" y="417" type="line"/>
      <point x="325" y="528"/>
      <point x="383" y="621"/>
    </contour>
    <contour>
      <point x="497" y="930" type="curve"/>
      <point x="483" y="960"/>
      <point x="458" y="1001"/>
      <point x="426" y="1001" type="curve" smooth="yes"/>
      <point x="381" y="1001"/>
      <point x="337" y="947"/>
      <point x="337" y="887" type="curve" smooth="yes"/>
      <point x="337" y="863"/>
      <point x="348" y="847"/>
      <point x="377" y="847" type="curve" smooth="yes"/>
      <point x="428" y="847"/>
      <point x="476" y="879"/>
    </contour>
    <contour>
      <point x="691" y="959" type="curve"/>
      <point x="672" y="982"/>
      <point x="645" y="992"/>
      <point x="613" y="992" type="curve" smooth="yes"/>
      <point x="568" y="992"/>
      <point x="537" y="954"/>
      <point x="537" y="894" type="curve" smooth="yes"/>
      <point x="537" y="870"/>
      <point x="557" y="847"/>
      <point x="587" y="847" type="curve" smooth="yes"/>
      <point x="638" y="847"/>
      <point x="669" y="902"/>
    </contour>
  </outline>
</glyph>
<glyph name="Egrave" format="1">
  <advance width="529"/>
  <unicode hex="00C8"/>
  <outline>
    <contour>
      <point x="309" y="-3" type="curve" smooth="yes"/>
      <point x="472" y="-3"/>
      <point x="609" y="90"/>
      <point x="609" y="198" type="curve" smooth="yes"/>
      <point x="609" y="221"/>
      <point x="601" y="236"/>
      <point x="591" y="236" type="curve" smooth="yes"/>
      <point x="571" y="236"/>
      <point x="496" y="112"/>
      <point x="369" y="112" type="curve" smooth="yes"/>
      <point x="272" y="112"/>
      <point x="207" y="145"/>
      <point x="207" y="228" type="curve" smooth="yes"/>
      <point x="207" y="296"/>
      <point x="229" y="333"/>
      <point x="267" y="359" type="curve"/>
      <point x="283" y="354"/>
      <point x="299" y="351"/>
      <point x="315" y="351" type="curve" smooth="yes"/>
      <point x="356" y="351"/>
      <point x="415" y="360"/>
      <point x="415" y="402" type="curve" smooth="yes"/>
      <point x="415" y="404" type="line" smooth="yes"/>
      <point x="412" y="439"/>
      <point x="373" y="446"/>
      <point x="328" y="446" type="curve" smooth="yes"/>
      <point x="316" y="446"/>
      <point x="305" y="445"/>
      <point x="295" y="443" type="curve"/>
      <point x="272" y="464"/>
      <point x="255" y="497"/>
      <point x="255" y="540" type="curve" smooth="yes"/>
      <point x="255" y="545"/>
      <point x="255" y="551"/>
      <point x="256" y="556" type="curve"/>
      <point x="296" y="527"/>
      <point x="336" y="508"/>
      <point x="390" y="508" type="curve" smooth="yes"/>
      <point x="497" y="508"/>
      <point x="563" y="563"/>
      <point x="563" y="633" type="curve" smooth="yes"/>
      <point x="563" y="729"/>
      <point x="481" y="756"/>
      <point x="399" y="756" type="curve" smooth="yes"/>
      <point x="311" y="756"/>
      <point x="244" y="733"/>
      <point x="196" y="704" type="curve"/>
      <point x="160" y="726"/>
      <point x="126" y="781"/>
      <point x="101" y="781" type="curve" smooth="yes"/>
      <point x="91" y="781"/>
      <point x="81" y="772"/>
      <point x="81" y="759" type="curve" smooth="yes"/>
      <point x="81" y="730"/>
      <point x="104" y="684"/>
      <point x="137" y="647" type="curve"/>
      <point x="119" y="619"/>
      <point x="110" y="588"/>
      <point x="110" y="556" type="curve" smooth="yes"/>
      <point x="110" y="485"/>
      <point x="134" y="436"/>
      <point x="183" y="402" type="curve"/>
      <point x="102" y="370"/>
      <point x="40" y="309"/>
      <point x="40" y="202" type="curve" smooth="yes"/>
      <point x="40" y="56"/>
      <point x="154" y="-3"/>
    </contour>
    <contour>
      <point x="341" y="830" type="curve" smooth="yes"/>
      <point x="370" y="830"/>
      <point x="425" y="840"/>
      <point x="425" y="855" type="curve" smooth="yes"/>
      <point x="425" y="860"/>
      <point x="419" y="865"/>
      <point x="405" y="869" type="curve" smooth="yes"/>
      <point x="318" y="894"/>
      <point x="252" y="928"/>
      <point x="201" y="997" type="curve" smooth="yes"/>
      <point x="194" y="1006"/>
      <point x="181" y="1012"/>
      <point x="164" y="1012" type="curve" smooth="yes"/>
      <point x="133" y="1012"/>
      <point x="77" y="997"/>
      <point x="77" y="975" type="curve" smooth="yes"/>
      <point x="77" y="877"/>
      <point x="265" y="830"/>
    </contour>
    <contour>
      <point x="392" y="657" type="curve" smooth="yes"/>
      <point x="425" y="657"/>
      <point x="452" y="645"/>
      <point x="452" y="618" type="curve" smooth="yes"/>
      <point x="452" y="595"/>
      <point x="430" y="585"/>
      <point x="398" y="585" type="curve" smooth="yes"/>
      <point x="352" y="585"/>
      <point x="316" y="599"/>
      <point x="285" y="618" type="curve"/>
      <point x="312" y="645"/>
      <point x="352" y="657"/>
    </contour>
  </outline>
</glyph>
<glyph name="Icircumflex" format="1">
  <advance width="328"/>
  <unicode hex="00CE"/>
  <outline>
    <contour>
      <point x="206" y="684" type="curve" smooth="yes"/>
      <point x="153" y="567"/>
      <point x="65" y="228"/>
      <point x="65" y="102" type="curve" smooth="yes"/>
      <point x="65" y="25"/>
      <point x="90" y="-5"/>
      <point x="174" y="-5" type="curve" smooth="yes"/>
      <point x="192" y="-5"/>
      <point x="214" y="1"/>
      <point x="214" y="23" type="curve" smooth="yes"/>
      <point x="214" y="252"/>
      <point x="323" y="604"/>
      <point x="323" y="700" type="curve" smooth="yes"/>
      <point x="323" y="727"/>
      <point x="308" y="754"/>
      <point x="290" y="754" type="curve" smooth="yes"/>
      <point x="246" y="754"/>
      <point x="221" y="717"/>
    </contour>
    <contour>
      <point x="215" y="864" type="curve" smooth="yes"/>
      <point x="245" y="890"/>
      <point x="269" y="909"/>
      <point x="294" y="929" type="curve"/>
      <point x="343" y="897"/>
      <point x="372" y="871"/>
      <point x="422" y="822" type="curve" smooth="yes"/>
      <point x="429" y="815"/>
      <point x="442" y="811"/>
      <point x="455" y="811" type="curve" smooth="yes"/>
      <point x="496" y="811"/>
      <point x="551" y="837"/>
      <point x="551" y="861" type="curve" smooth="yes"/>
      <point x="551" y="864"/>
      <point x="549" y="869"/>
      <point x="545" y="873" type="curve" smooth="yes"/>
      <point x="481" y="945"/>
      <point x="446" y="966"/>
      <point x="362" y="1015" type="curve" smooth="yes"/>
      <point x="354" y="1020"/>
      <point x="344" y="1022"/>
      <point x="334" y="1022" type="curve" smooth="yes"/>
      <point x="302" y="1022"/>
      <point x="269" y="1006"/>
      <point x="248" y="990" type="curve" smooth="yes"/>
      <point x="195" y="949"/>
      <point x="159" y="925"/>
      <point x="110" y="883" type="curve" smooth="yes"/>
      <point x="102" y="876"/>
      <point x="97" y="868"/>
      <point x="97" y="860" type="curve" smooth="yes"/>
      <point x="97" y="840"/>
      <point x="126" y="838"/>
      <point x="139" y="838" type="curve" smooth="yes"/>
      <point x="166" y="838"/>
      <point x="196" y="847"/>
    </contour>
  </outline>
</glyph>
<glyph name="Eth" format="1">
  <advance width="745"/>
  <unicode hex="00D0"/>
  <outline>
    <contour>
      <point x="212" y="519" type="curve" smooth="yes"/>
      <point x="196" y="485"/>
      <point x="181" y="446"/>
      <point x="166" y="406" type="curve"/>
      <point x="148" y="406" type="line" smooth="yes"/>
      <point x="74" y="406"/>
      <point x="11" y="388"/>
      <point x="11" y="325" type="curve" smooth="yes"/>
      <point x="11" y="318"/>
      <point x="14" y="316"/>
      <point x="17" y="316" type="curve" smooth="yes"/>
      <point x="34" y="316"/>
      <point x="85" y="317"/>
      <point x="137" y="317" type="curve"/>
      <point x="122" y="265"/>
      <point x="111" y="212"/>
      <point x="105" y="163" type="curve"/>
      <point x="60" y="175"/>
      <point x="24" y="185"/>
      <point x="6" y="185" type="curve" smooth="yes"/>
      <point x="-4" y="185"/>
      <point x="-10" y="179"/>
      <point x="-10" y="173" type="curve" smooth="yes"/>
      <point x="-10" y="144"/>
      <point x="37" y="102"/>
      <point x="101" y="66" type="curve"/>
      <point x="104" y="14"/>
      <point x="120" y="-9"/>
      <point x="190" y="-9" type="curve" smooth="yes"/>
      <point x="205" y="-9"/>
      <point x="223" y="-4"/>
      <point x="228" y="10" type="curve"/>
      <point x="265" y="-1"/>
      <point x="301" y="-8"/>
      <point x="332" y="-8" type="curve" smooth="yes"/>
      <point x="605" y="-8"/>
      <point x="730" y="202"/>
      <point x="730" y="408" type="curve" smooth="yes"/>
      <point x="730" y="668"/>
      <point x="560" y="753"/>
      <point x="395" y="753" type="curve" smooth="yes"/>
      <point x="250" y="753"/>
      <point x="85" y="650"/>
      <point x="85" y="600" type="curve" smooth="yes"/>
      <point x="85" y="589"/>
      <point x="97" y="586"/>
      <point x="113" y="586" type="curve" smooth="yes"/>
      <point x="167" y="586"/>
      <point x="290" y="655"/>
      <point x="395" y="655" type="curve" smooth="yes"/>
      <point x="494" y="655"/>
      <point x="578" y="605"/>
      <point x="578" y="419" type="curve" smooth="yes"/>
      <point x="578" y="266"/>
      <point x="490" y="115"/>
      <point x="351" y="115" type="curve" smooth="yes"/>
      <point x="317" y="115"/>
      <point x="277" y="121"/>
      <point x="236" y="130" type="curve"/>
      <point x="243" y="198"/>
      <point x="255" y="261"/>
      <point x="267" y="317" type="curve"/>
      <point x="308" y="315"/>
      <point x="381" y="311"/>
      <point x="392" y="311" type="curve" smooth="yes"/>
      <point x="414" y="311"/>
      <point x="459" y="364"/>
      <point x="459" y="386" type="curve" smooth="yes"/>
      <point x="459" y="399"/>
      <point x="455" y="403"/>
      <point x="447" y="403" type="curve" smooth="yes"/>
      <point x="434" y="403"/>
      <point x="360" y="404"/>
      <point x="287" y="405" type="curve"/>
      <point x="299" y="458"/>
      <point x="309" y="502"/>
      <point x="309" y="535" type="curve" smooth="yes"/>
      <point x="309" y="562"/>
      <point x="297" y="589"/>
      <point x="286" y="589" type="curve" smooth="yes"/>
      <point x="250" y="589"/>
      <point x="227" y="552"/>
    </contour>
  </outline>
</glyph>
<glyph name="Ntilde" format="1">
  <advance width="691"/>
  <unicode hex="00D1"/>
  <outline>
    <contour>
      <point x="390" y="907" type="curve" smooth="yes"/>
      <point x="403" y="930"/>
      <point x="416" y="940"/>
      <point x="427" y="940" type="curve" smooth="yes"/>
      <point x="499" y="940"/>
      <point x="538" y="839"/>
      <point x="621" y="839" type="curve" smooth="yes"/>
      <point x="687" y="839"/>
      <point x="739" y="868"/>
      <point x="772" y="937" type="curve"/>
      <point x="775" y="939"/>
      <point x="775" y="942"/>
      <point x="775" y="945" type="curve" smooth="yes"/>
      <point x="775" y="958"/>
      <point x="761" y="963"/>
      <point x="742" y="963" type="curve" smooth="yes"/>
      <point x="686" y="963"/>
      <point x="674" y="923"/>
      <point x="651" y="923" type="curve" smooth="yes"/>
      <point x="589" y="923"/>
      <point x="543" y="1032"/>
      <point x="462" y="1032" type="curve" smooth="yes"/>
      <point x="417" y="1032"/>
      <point x="350" y="1008"/>
      <point x="293" y="938" type="curve" smooth="yes"/>
      <point x="284" y="927"/>
      <point x="274" y="913"/>
      <point x="275" y="900" type="curve" smooth="yes"/>
      <point x="275" y="891"/>
      <point x="280" y="878"/>
      <point x="295" y="878" type="curve" smooth="yes"/>
      <point x="322" y="878"/>
      <point x="377" y="886"/>
    </contour>
    <contour>
      <point x="541" y="-3" type="curve" smooth="yes"/>
      <point x="646" y="-3"/>
      <point x="771" y="111"/>
      <point x="771" y="198" type="curve" smooth="yes"/>
      <point x="771" y="221"/>
      <point x="763" y="236"/>
      <point x="753" y="236" type="curve" smooth="yes"/>
      <point x="745" y="236"/>
      <point x="733" y="227"/>
      <point x="717" y="207" type="curve" smooth="yes"/>
      <point x="685" y="165"/>
      <point x="625" y="112"/>
      <point x="601" y="112" type="curve" smooth="yes"/>
      <point x="584" y="112"/>
      <point x="578" y="132"/>
      <point x="578" y="164" type="curve" smooth="yes"/>
      <point x="578" y="244"/>
      <point x="685" y="405"/>
      <point x="685" y="561" type="curve" smooth="yes"/>
      <point x="685" y="665"/>
      <point x="637" y="752"/>
      <point x="499" y="752" type="curve" smooth="yes"/>
      <point x="405" y="752"/>
      <point x="333" y="683"/>
      <point x="283" y="586" type="curve"/>
      <point x="283" y="593" type="line" smooth="yes"/>
      <point x="283" y="678"/>
      <point x="270" y="750"/>
      <point x="170" y="750" type="curve" smooth="yes"/>
      <point x="79" y="750"/>
      <point x="0" y="698"/>
      <point x="0" y="625" type="curve" smooth="yes"/>
      <point x="0" y="604"/>
      <point x="6" y="597"/>
      <point x="16" y="597" type="curve" smooth="yes"/>
      <point x="55" y="597"/>
      <point x="78" y="647"/>
      <point x="115" y="647" type="curve" smooth="yes"/>
      <point x="146" y="647"/>
      <point x="156" y="608"/>
      <point x="156" y="566" type="curve" smooth="yes"/>
      <point x="156" y="527"/>
      <point x="84" y="221"/>
      <point x="84" y="82" type="curve" smooth="yes"/>
      <point x="84" y="21"/>
      <point x="101" y="-15"/>
      <point x="134" y="-15" type="curve" smooth="yes"/>
      <point x="160" y="-15"/>
      <point x="183" y="-2"/>
      <point x="208" y="10" type="curve" smooth="yes"/>
      <point x="239" y="25"/>
      <point x="249" y="52"/>
      <point x="249" y="84" type="curve" smooth="yes"/>
      <point x="249" y="122"/>
      <point x="239" y="163"/>
      <point x="230" y="208" type="curve"/>
      <point x="252" y="335"/>
      <point x="347" y="616"/>
      <point x="480" y="616" type="curve" smooth="yes"/>
      <point x="520" y="616"/>
      <point x="541" y="581"/>
      <point x="541" y="526" type="curve" smooth="yes"/>
      <point x="541" y="434"/>
      <point x="437" y="229"/>
      <point x="437" y="103" type="curve" smooth="yes"/>
      <point x="437" y="40"/>
      <point x="463" y="-3"/>
    </contour>
  </outline>
</glyph>
<glyph name="Oslash" format="1">
  <advance width="847"/>
  <unicode hex="00D8"/>
  <outline>
    <contour>
      <point x="31" y="46" type="curve"/>
      <point x="22" y="35"/>
      <point x="20" y="18"/>
      <point x="20" y="9" type="curve" smooth="yes"/>
      <point x="20" y="-9"/>
      <point x="24" y="-48"/>
      <point x="49" y="-48" type="curve" smooth="yes"/>
      <point x="71" y="-48"/>
      <point x="121" y="15"/>
      <point x="161" y="69" type="curve"/>
      <point x="213" y="22"/>
      <point x="288" y="-8"/>
      <point x="389" y="-8" type="curve" smooth="yes"/>
      <point x="598" y="-8"/>
      <point x="729" y="114"/>
      <point x="768" y="301" type="curve"/>
      <point x="820" y="310"/>
      <point x="852" y="351"/>
      <point x="852" y="407" type="curve" smooth="yes"/>
      <point x="852" y="416"/>
      <point x="846" y="424"/>
      <point x="838" y="424" type="curve" smooth="yes"/>
      <point x="815" y="424"/>
      <point x="802" y="408"/>
      <point x="779" y="398" type="curve"/>
      <point x="780" y="407"/>
      <point x="780" y="416"/>
      <point x="780" y="425" type="curve" smooth="yes"/>
      <point x="780" y="492"/>
      <point x="751" y="523"/>
      <point x="699" y="523" type="curve" smooth="yes"/>
      <point x="657" y="523"/>
      <point x="621" y="480"/>
      <point x="621" y="435" type="curve" smooth="yes"/>
      <point x="621" y="384"/>
      <point x="642" y="345"/>
      <point x="673" y="322" type="curve"/>
      <point x="636" y="209"/>
      <point x="549" y="125"/>
      <point x="399" y="125" type="curve" smooth="yes"/>
      <point x="339" y="125"/>
      <point x="292" y="149"/>
      <point x="262" y="193" type="curve"/>
      <point x="361" y="296"/>
      <point x="574" y="515"/>
      <point x="630" y="577" type="curve" smooth="yes"/>
      <point x="659" y="609" type="line"/>
      <point x="688" y="592"/>
      <point x="711" y="576"/>
      <point x="722" y="576" type="curve" smooth="yes"/>
      <point x="737" y="576"/>
      <point x="746" y="580"/>
      <point x="746" y="594" type="curve" smooth="yes"/>
      <point x="746" y="619"/>
      <point x="732" y="644"/>
      <point x="708" y="667" type="curve"/>
      <point x="732" y="698"/>
      <point x="731" y="706"/>
      <point x="731" y="728" type="curve" smooth="yes"/>
      <point x="731" y="748"/>
      <point x="725" y="784"/>
      <point x="706" y="784" type="curve" smooth="yes"/>
      <point x="703" y="784"/>
      <point x="700" y="782"/>
      <point x="698" y="779" type="curve"/>
      <point x="698" y="779"/>
      <point x="674" y="753"/>
      <point x="639" y="714" type="curve"/>
      <point x="591" y="737"/>
      <point x="532" y="753"/>
      <point x="474" y="753" type="curve" smooth="yes"/>
      <point x="224" y="753"/>
      <point x="68" y="533"/>
      <point x="68" y="299" type="curve" smooth="yes"/>
      <point x="68" y="238"/>
      <point x="82" y="178"/>
      <point x="113" y="127" type="curve"/>
      <point x="67" y="80"/>
      <point x="31" y="46"/>
    </contour>
    <contour>
      <point x="225" y="337" type="curve" smooth="yes"/>
      <point x="225" y="484"/>
      <point x="314" y="657"/>
      <point x="466" y="657" type="curve" smooth="yes"/>
      <point x="504" y="657"/>
      <point x="547" y="652"/>
      <point x="574" y="646" type="curve"/>
      <point x="575" y="645"/>
      <point x="577" y="645"/>
      <point x="578" y="645" type="curve"/>
      <point x="456" y="508"/>
      <point x="280" y="311"/>
      <point x="251" y="277" type="curve" smooth="yes"/>
      <point x="234" y="257" type="line"/>
      <point x="228" y="281"/>
      <point x="225" y="308"/>
    </contour>
  </outline>
</glyph>
<glyph name="Uacute" format="1">
  <advance width="691"/>
  <unicode hex="00DA"/>
  <outline>
    <contour>
      <point x="550" y="-3" type="curve" smooth="yes"/>
      <point x="659" y="-3"/>
      <point x="771" y="111"/>
      <point x="771" y="198" type="curve" smooth="yes"/>
      <point x="771" y="221"/>
      <point x="767" y="233"/>
      <point x="757" y="233" type="curve" smooth="yes"/>
      <point x="738" y="233"/>
      <point x="649" y="112"/>
      <point x="610" y="112" type="curve" smooth="yes"/>
      <point x="592" y="112"/>
      <point x="585" y="148"/>
      <point x="585" y="203" type="curve" smooth="yes"/>
      <point x="585" y="339"/>
      <point x="636" y="587"/>
      <point x="636" y="650" type="curve" smooth="yes"/>
      <point x="636" y="713"/>
      <point x="632" y="751"/>
      <point x="608" y="751" type="curve" smooth="yes"/>
      <point x="557" y="751"/>
      <point x="484" y="712"/>
      <point x="484" y="646" type="curve" smooth="yes"/>
      <point x="484" y="622"/>
      <point x="488" y="474"/>
      <point x="488" y="437" type="curve"/>
      <point x="482" y="392" type="line"/>
      <point x="460" y="270"/>
      <point x="401" y="124"/>
      <point x="297" y="124" type="curve" smooth="yes"/>
      <point x="243" y="124"/>
      <point x="227" y="159"/>
      <point x="227" y="191" type="curve" smooth="yes"/>
      <point x="227" y="337"/>
      <point x="296" y="473"/>
      <point x="296" y="596" type="curve" smooth="yes"/>
      <point x="296" y="654"/>
      <point x="270" y="750"/>
      <point x="170" y="750" type="curve" smooth="yes"/>
      <point x="79" y="750"/>
      <point x="0" y="698"/>
      <point x="0" y="625" type="curve" smooth="yes"/>
      <point x="0" y="604"/>
      <point x="6" y="597"/>
      <point x="16" y="597" type="curve" smooth="yes"/>
      <point x="55" y="597"/>
      <point x="78" y="647"/>
      <point x="115" y="647" type="curve" smooth="yes"/>
      <point x="146" y="647"/>
      <point x="156" y="608"/>
      <point x="156" y="566" type="curve" smooth="yes"/>
      <point x="156" y="480"/>
      <point x="75" y="235"/>
      <point x="75" y="182" type="curve" smooth="yes"/>
      <point x="75" y="54"/>
      <point x="151" y="-3"/>
      <point x="269" y="-3" type="curve" smooth="yes"/>
      <point x="373" y="-3"/>
      <point x="433" y="71"/>
      <point x="468" y="152" type="curve"/>
      <point x="469" y="61"/>
      <point x="479" y="-3"/>
    </contour>
    <contour>
      <point x="681" y="962" type="curve" smooth="yes"/>
      <point x="690" y="974"/>
      <point x="697" y="991"/>
      <point x="697" y="996" type="curve" smooth="yes"/>
      <point x="697" y="1006"/>
      <point x="674" y="1012"/>
      <point x="649" y="1012" type="curve" smooth="yes"/>
      <point x="622" y="1012"/>
      <point x="592" y="1004"/>
      <point x="582" y="989" type="curve" smooth="yes"/>
      <point x="540" y="926"/>
      <point x="496" y="899"/>
      <point x="414" y="872" type="curve" smooth="yes"/>
      <point x="406" y="869"/>
      <point x="374" y="861"/>
      <point x="374" y="844" type="curve" smooth="yes"/>
      <point x="374" y="827"/>
      <point x="403" y="825"/>
      <point x="414" y="825" type="curve" smooth="yes"/>
      <point x="547" y="825"/>
      <point x="607" y="866"/>
    </contour>
  </outline>
</glyph>
<glyph name="edieresis" format="1">
  <advance width="418"/>
  <unicode hex="00EB"/>
  <outline>
    <contour>
      <point x="263" y="109" type="curve" smooth="yes"/>
      <point x="226" y="109"/>
      <point x="167" y="121"/>
      <point x="167" y="176" type="curve" smooth="yes"/>
      <point x="167" y="201" type="line"/>
      <point x="273" y="250"/>
      <point x="401" y="266"/>
      <point x="401" y="384" type="curve" smooth="yes"/>
      <point x="401" y="440"/>
      <point x="360" y="480"/>
      <point x="285" y="480" type="curve" smooth="yes"/>
      <point x="146" y="480"/>
      <point x="20" y="341"/>
      <point x="20" y="150" type="curve" smooth="yes"/>
      <point x="20" y="41"/>
      <point x="107" y="-6"/>
      <point x="197" y="-6" type="curve" smooth="yes"/>
      <point x="426" y="-6"/>
      <point x="498" y="142"/>
      <point x="498" y="198" type="curve" smooth="yes"/>
      <point x="498" y="221"/>
      <point x="494" y="233"/>
      <point x="484" y="233" type="curve" smooth="yes"/>
      <point x="461" y="233"/>
      <point x="395" y="109"/>
    </contour>
    <contour>
      <point x="280" y="685" type="curve"/>
      <point x="266" y="715"/>
      <point x="241" y="756"/>
      <point x="209" y="756" type="curve" smooth="yes"/>
      <point x="164" y="756"/>
      <point x="120" y="702"/>
      <point x="120" y="642" type="curve" smooth="yes"/>
      <point x="120" y="618"/>
      <point x="131" y="602"/>
      <point x="160" y="602" type="curve" smooth="yes"/>
      <point x="211" y="602"/>
      <point x="259" y="634"/>
    </contour>
    <contour>
      <point x="474" y="714" type="curve"/>
      <point x="455" y="737"/>
      <point x="428" y="747"/>
      <point x="396" y="747" type="curve" smooth="yes"/>
      <point x="351" y="747"/>
      <point x="320" y="709"/>
      <point x="320" y="649" type="curve" smooth="yes"/>
      <point x="320" y="625"/>
      <point x="340" y="602"/>
      <point x="370" y="602" type="curve" smooth="yes"/>
      <point x="421" y="602"/>
      <point x="452" y="657"/>
    </contour>
    <contour>
      <point x="246" y="391" type="curve" smooth="yes"/>
      <point x="267" y="391"/>
      <point x="277" y="381"/>
      <point x="277" y="366" type="curve" smooth="yes"/>
      <point x="277" y="325"/>
      <point x="230" y="307"/>
      <point x="174" y="270" type="curve"/>
      <point x="184" y="333"/>
      <point x="206" y="391"/>
    </contour>
  </outline>
</glyph>
<glyph name="igrave" format="1">
  <advance width="291"/>
  <unicode hex="00EC"/>
  <outline>
    <contour>
      <point x="150" y="-3" type="curve" smooth="yes"/>
      <point x="259" y="-3"/>
      <point x="371" y="111"/>
      <point x="371" y="198" type="curve" smooth="yes"/>
      <point x="371" y="221"/>
      <point x="367" y="233"/>
      <point x="357" y="233" type="curve" smooth="yes"/>
      <point x="338" y="233"/>
      <point x="249" y="112"/>
      <point x="210" y="112" type="curve" smooth="yes"/>
      <point x="191" y="112"/>
      <point x="175" y="123"/>
      <point x="175" y="143" type="curve" smooth="yes"/>
      <point x="175" y="197"/>
      <point x="221" y="311"/>
      <point x="223" y="401" type="curve" smooth="yes"/>
      <point x="223" y="424"/>
      <point x="206" y="497"/>
      <point x="164" y="497" type="curve" smooth="yes"/>
      <point x="91" y="497"/>
      <point x="50" y="303"/>
      <point x="50" y="184" type="curve" smooth="yes"/>
      <point x="50" y="82"/>
      <point x="72" y="-3"/>
    </contour>
    <contour>
      <point x="172" y="555" type="curve" smooth="yes"/>
      <point x="183" y="555"/>
      <point x="192" y="557"/>
      <point x="192" y="562" type="curve" smooth="yes"/>
      <point x="192" y="573"/>
      <point x="185" y="581"/>
      <point x="182" y="587" type="curve" smooth="yes"/>
      <point x="147" y="652"/>
      <point x="153" y="676"/>
      <point x="147" y="751" type="curve" smooth="yes"/>
      <point x="144" y="780"/>
      <point x="106" y="787"/>
      <point x="81" y="787" type="curve" smooth="yes"/>
      <point x="41" y="787"/>
      <point x="36" y="770"/>
      <point x="36" y="738" type="curve" smooth="yes"/>
      <point x="36" y="649"/>
      <point x="117" y="555"/>
    </contour>
  </outline>
</glyph>
<glyph name="ucircumflex" format="1">
  <advance width="533"/>
  <unicode hex="00FB"/>
  <outline>
    <contour>
      <point x="170" y="486" type="curve" smooth="yes"/>
      <point x="149" y="486"/>
      <point x="105" y="481"/>
      <point x="81" y="462" type="curve"/>
      <point x="52" y="216" type="line"/>
      <point x="30" y="174"/>
      <point x="20" y="148"/>
      <point x="20" y="114" type="curve" smooth="yes"/>
      <point x="20" y="32"/>
      <point x="84" y="-5"/>
      <point x="174" y="-5" type="curve" smooth="yes"/>
      <point x="247" y="-5"/>
      <point x="292" y="36"/>
      <point x="319" y="85" type="curve"/>
      <point x="324" y="35"/>
      <point x="342" y="-3"/>
      <point x="392" y="-3" type="curve" smooth="yes"/>
      <point x="501" y="-3"/>
      <point x="613" y="111"/>
      <point x="613" y="198" type="curve" smooth="yes"/>
      <point x="613" y="221"/>
      <point x="609" y="233"/>
      <point x="599" y="233" type="curve" smooth="yes"/>
      <point x="580" y="233"/>
      <point x="491" y="112"/>
      <point x="452" y="112" type="curve" smooth="yes"/>
      <point x="444" y="112"/>
      <point x="441" y="118"/>
      <point x="441" y="129" type="curve" smooth="yes"/>
      <point x="441" y="199"/>
      <point x="484" y="320"/>
      <point x="484" y="424" type="curve" smooth="yes"/>
      <point x="484" y="465"/>
      <point x="479" y="489"/>
      <point x="445" y="489" type="curve" smooth="yes"/>
      <point x="373" y="489"/>
      <point x="341" y="464"/>
      <point x="341" y="422" type="curve" smooth="yes"/>
      <point x="341" y="406"/>
      <point x="341" y="356"/>
      <point x="344" y="335" type="curve"/>
      <point x="333" y="253"/>
      <point x="295" y="102"/>
      <point x="221" y="102" type="curve" smooth="yes"/>
      <point x="186" y="102"/>
      <point x="176" y="117"/>
      <point x="176" y="138" type="curve" smooth="yes"/>
      <point x="176" y="232"/>
      <point x="223" y="310"/>
      <point x="223" y="389" type="curve" smooth="yes"/>
      <point x="223" y="440"/>
      <point x="217" y="486"/>
    </contour>
    <contour>
      <point x="221" y="589" type="curve" smooth="yes"/>
      <point x="251" y="614"/>
      <point x="276" y="641"/>
      <point x="300" y="668" type="curve"/>
      <point x="333" y="631"/>
      <point x="355" y="594"/>
      <point x="398" y="547" type="curve" smooth="yes"/>
      <point x="405" y="540"/>
      <point x="418" y="536"/>
      <point x="431" y="536" type="curve" smooth="yes"/>
      <point x="472" y="536"/>
      <point x="527" y="562"/>
      <point x="527" y="586" type="curve" smooth="yes"/>
      <point x="527" y="589"/>
      <point x="525" y="594"/>
      <point x="521" y="598" type="curve" smooth="yes"/>
      <point x="457" y="670"/>
      <point x="436" y="722"/>
      <point x="358" y="776" type="curve" smooth="yes"/>
      <point x="350" y="781"/>
      <point x="340" y="783"/>
      <point x="330" y="783" type="curve" smooth="yes"/>
      <point x="298" y="783"/>
      <point x="261" y="765"/>
      <point x="244" y="745" type="curve" smooth="yes"/>
      <point x="202" y="695"/>
      <point x="165" y="650"/>
      <point x="116" y="608" type="curve" smooth="yes"/>
      <point x="108" y="601"/>
      <point x="103" y="593"/>
      <point x="103" y="585" type="curve" smooth="yes"/>
      <point x="103" y="565"/>
      <point x="132" y="563"/>
      <point x="145" y="563" type="curve" smooth="yes"/>
      <point x="172" y="563"/>
      <point x="202" y="572"/>
    </contour>
  </outline>
</glyph>
<glyph name="udieresis" format="1">
  <advance width="533"/>
  <unicode hex="00FC"/>
  <outline>
    <contour>
      <point x="170" y="486" type="curve" smooth="yes"/>
      <point x="149" y="486"/>
      <point x="105" y="481"/>
      <point x="81" y="462" type="curve"/>
      <point x="52" y="216" type="line"/>
      <point x="30" y="174"/>
      <point x="20" y="148"/>
      <point x="20" y="114" type="curve" smooth="yes"/>
      <point x="20" y="32"/>
      <point x="84" y="-5"/>
      <point x="174" y="-5" type="curve" smooth="yes"/>
      <point x="247" y="-5"/>
      <point x="292" y="36"/>
      <point x="319" y="85" type="curve"/>
      <point x="324" y="35"/>
      <point x="342" y="-3"/>
      <point x="392" y="-3" type="curve" smooth="yes"/>
      <point x="501" y="-3"/>
      <point x="613" y="111"/>
      <point x="613" y="198" type="curve" smooth="yes"/>
      <point x="613" y="221"/>
      <point x="609" y="233"/>
      <point x="599" y="233" type="curve" smooth="yes"/>
      <point x="580" y="233"/>
      <point x="491" y="112"/>
      <point x="452" y="112" type="curve" smooth="yes"/>
      <point x="444" y="112"/>
      <point x="441" y="118"/>
      <point x="441" y="129" type="curve" smooth="yes"/>
      <point x="441" y="199"/>
      <point x="484" y="320"/>
      <point x="484" y="424" type="curve" smooth="yes"/>
      <point x="484" y="465"/>
      <point x="479" y="489"/>
      <point x="445" y="489" type="curve" smooth="yes"/>
      <point x="373" y="489"/>
      <point x="341" y="464"/>
      <point x="341" y="422" type="curve" smooth="yes"/>
      <point x="341" y="406"/>
      <point x="341" y="356"/>
      <point x="344" y="335" type="curve"/>
      <point x="333" y="253"/>
      <point x="295" y="102"/>
      <point x="221" y="102" type="curve" smooth="yes"/>
      <point x="186" y="102"/>
      <point x="176" y="117"/>
      <point x="176" y="138" type="curve" smooth="yes"/>
      <point x="176" y="232"/>
      <point x="223" y="310"/>
      <point x="223" y="389" type="curve" smooth="yes"/>
      <point x="223" y="440"/>
      <point x="217" y="486"/>
    </contour>
    <contour>
      <point x="293" y="685" type="curve"/>
      <point x="279" y="715"/>
      <point x="254" y="756"/>
      <point x="222" y="756" type="curve" smooth="yes"/>
      <point x="177" y="756"/>
      <point x="133" y="702"/>
      <point x="133" y="642" type="curve" smooth="yes"/>
      <point x="133" y="618"/>
      <point x="144" y="602"/>
      <point x="173" y="602" type="curve" smooth="yes"/>
      <point x="224" y="602"/>
      <point x="272" y="634"/>
    </contour>
    <contour>
      <point x="487" y="714" type="curve"/>
      <point x="468" y="737"/>
      <point x="441" y="747"/>
      <point x="409" y="747" type="curve" smooth="yes"/>
      <point x="364" y="747"/>
      <point x="333" y="709"/>
      <point x="333" y="649" type="curve" smooth="yes"/>
      <point x="333" y="625"/>
      <point x="353" y="602"/>
      <point x="383" y="602" type="curve" smooth="yes"/>
      <point x="434" y="602"/>
      <point x="465" y="657"/>
    </contour>
  </outline>
</glyph>
<glyph name="OE" format="1">
  <advance width="1150"/>
  <unicode hex="0152"/>
  <outline>
    <contour>
      <point x="652" y="686" type="curve" smooth="yes"/>
      <point x="651" y="685"/>
      <point x="651" y="684"/>
      <point x="651" y="683" type="curve" smooth="yes"/>
      <point x="617" y="720"/>
      <point x="559" y="753"/>
      <point x="476" y="753" type="curve" smooth="yes"/>
      <point x="226" y="753"/>
      <point x="70" y="533"/>
      <point x="70" y="299" type="curve" smooth="yes"/>
      <point x="70" y="142"/>
      <point x="165" y="-8"/>
      <point x="391" y="-8" type="curve" smooth="yes"/>
      <point x="472" y="-8"/>
      <point x="530" y="28"/>
      <point x="573" y="67" type="curve"/>
      <point x="573" y="15"/>
      <point x="577" y="-15"/>
      <point x="607" y="-15" type="curve" smooth="yes"/>
      <point x="637" y="-15"/>
      <point x="668" y="-12"/>
      <point x="690" y="-2" type="curve"/>
      <point x="745" y="-4"/>
      <point x="840" y="-11"/>
      <point x="864" y="-11" type="curve" smooth="yes"/>
      <point x="1027" y="-11"/>
      <point x="1144" y="22"/>
      <point x="1144" y="130" type="curve" smooth="yes"/>
      <point x="1144" y="153"/>
      <point x="1136" y="168"/>
      <point x="1126" y="168" type="curve" smooth="yes"/>
      <point x="1078" y="168"/>
      <point x="1077" y="104"/>
      <point x="924" y="104" type="curve" smooth="yes"/>
      <point x="859" y="104"/>
      <point x="784" y="101"/>
      <point x="723" y="98" type="curve"/>
      <point x="727" y="165"/>
      <point x="736" y="241"/>
      <point x="747" y="316" type="curve"/>
      <point x="814" y="315"/>
      <point x="942" y="310"/>
      <point x="965" y="310" type="curve" smooth="yes"/>
      <point x="995" y="310"/>
      <point x="1009" y="321"/>
      <point x="1020" y="347" type="curve" smooth="yes"/>
      <point x="1026" y="363"/>
      <point x="1040" y="387"/>
      <point x="1040" y="395" type="curve" smooth="yes"/>
      <point x="1040" y="410"/>
      <point x="1030" y="414"/>
      <point x="1014" y="414" type="curve" smooth="yes"/>
      <point x="978" y="414"/>
      <point x="866" y="416"/>
      <point x="763" y="417" type="curve"/>
      <point x="801" y="634" type="line"/>
      <point x="904" y="633"/>
      <point x="1070" y="632"/>
      <point x="1092" y="632" type="curve" smooth="yes"/>
      <point x="1123" y="632"/>
      <point x="1138" y="643"/>
      <point x="1149" y="671" type="curve" smooth="yes"/>
      <point x="1156" y="689"/>
      <point x="1170" y="715"/>
      <point x="1170" y="723" type="curve" smooth="yes"/>
      <point x="1170" y="739"/>
      <point x="1160" y="744"/>
      <point x="1143" y="744" type="curve" smooth="yes"/>
      <point x="1099" y="744"/>
      <point x="856" y="731"/>
      <point x="726" y="731" type="curve" smooth="yes"/>
      <point x="689" y="731"/>
      <point x="665" y="716"/>
    </contour>
    <contour>
      <point x="401" y="125" type="curve" smooth="yes"/>
      <point x="292" y="125"/>
      <point x="227" y="205"/>
      <point x="227" y="337" type="curve" smooth="yes"/>
      <point x="227" y="484"/>
      <point x="316" y="657"/>
      <point x="468" y="657" type="curve" smooth="yes"/>
      <point x="557" y="657"/>
      <point x="594" y="623"/>
      <point x="627" y="607" type="curve"/>
      <point x="600" y="492"/>
      <point x="583" y="309"/>
      <point x="576" y="184" type="curve"/>
      <point x="533" y="152"/>
      <point x="477" y="125"/>
    </contour>
  </outline>
</glyph>
<glyph name="quoteleft" format="1">
  <advance width="346"/>
  <unicode hex="2018"/>
  <outline>
    <contour>
      <point x="247" y="599" type="curve" smooth="yes"/>
      <point x="247" y="623"/>
      <point x="242" y="650"/>
      <point x="213" y="669" type="curve"/>
      <point x="231" y="720"/>
      <point x="296" y="715"/>
      <point x="296" y="753" type="curve" smooth="yes"/>
      <point x="296" y="774"/>
      <point x="268" y="780"/>
      <point x="250" y="780" type="curve" smooth="yes"/>
      <point x="150" y="780"/>
      <point x="60" y="655"/>
      <point x="60" y="562" type="curve" smooth="yes"/>
      <point x="60" y="512"/>
      <point x="92" y="494"/>
      <point x="128" y="494" type="curve" smooth="yes"/>
      <point x="190" y="494"/>
      <point x="247" y="536"/>
    </contour>
  </outline>
</glyph>
